<?xml version="1.0" standalone="no"?>
<!DOCTYPE svg PUBLIC "-//W3C//DTD SVG 20010904//EN"
 "http://www.w3.org/TR/2001/REC-SVG-20010904/DTD/svg10.dtd">
<svg version="1.0" xmlns="http://www.w3.org/2000/svg"
 width="434.000000pt" height="434.000000pt" viewBox="0 0 434.000000 434.000000"
 preserveAspectRatio="xMidYMid meet">
<metadata>
Created by potrace 1.11, written by Peter Selinger 2001-2013
</metadata>
<g transform="translate(0.000000,434.000000) scale(0.100000,-0.100000)"
fill="#000000" stroke="none">
<path d="M1783 4237 c-28 -30 -103 -133 -103 -141 0 -2 -28 -50 -63 -107 -54
-90 -80 -141 -129 -259 -6 -14 -15 -34 -20 -44 -21 -40 -84 -233 -94 -286 -2
-14 -7 -36 -10 -50 -3 -14 -8 -36 -10 -50 -3 -14 -9 -47 -14 -75 -19 -100 -22
-143 -25 -320 -3 -189 8 -292 41 -375 28 -72 80 -103 103 -63 12 23 11 24 65
-79 25 -48 53 -97 63 -109 30 -37 67 -73 95 -93 15 -11 25 -22 23 -25 -6 -10
-240 -3 -307 9 -89 16 -152 54 -202 120 -76 99 -154 262 -170 350 -2 14 -8 43
-14 65 -5 22 -10 47 -10 55 -1 19 -49 204 -64 245 -32 87 -74 163 -117 209
-26 28 -47 58 -46 66 2 35 -28 138 -50 171 -13 20 -37 41 -53 47 -27 9 -33 7
-63 -24 -26 -27 -32 -42 -34 -81 -1 -47 -1 -48 -35 -50 -19 -1 -51 -4 -71 -7
-27 -4 -40 -2 -50 11 -24 28 -111 63 -159 63 -50 0 -107 -25 -126 -55 -19 -30
9 -81 58 -106 21 -11 38 -20 38 -22 0 -1 -24 -3 -53 -3 -85 -2 -153 -52 -161
-120 -6 -44 7 -58 53 -58 36 -1 39 -3 24 -13 -110 -78 -113 -176 -6 -188 13
-1 26 -4 28 -7 3 -2 7 -42 11 -89 3 -46 12 -109 21 -139 19 -70 73 -200 82
-200 4 0 14 -12 22 -27 22 -43 120 -186 154 -224 17 -19 53 -53 80 -75 51 -42
188 -134 200 -134 4 0 19 -8 33 -19 29 -20 152 -87 247 -134 62 -30 238 -92
290 -101 60 -11 75 -15 86 -22 22 -13 175 -5 279 15 30 6 66 13 79 16 12 2 28
8 35 13 6 5 19 12 29 15 13 5 10 -7 -17 -56 -19 -34 -53 -107 -76 -162 -45
-105 -150 -432 -150 -466 0 -19 -5 -20 -51 -15 -28 3 -55 8 -59 11 -5 3 -44 8
-87 11 -253 19 -364 -17 -465 -150 -71 -92 -82 -125 -82 -241 -1 -111 3 -130
36 -183 33 -53 46 -70 108 -132 91 -92 218 -154 425 -207 163 -42 252 -50 515
-47 355 5 403 3 473 -20 45 -14 49 -14 66 3 10 10 32 19 47 18 28 0 146 10
209 18 17 2 55 9 85 15 30 6 66 13 80 16 62 12 179 49 224 70 28 13 54 24 58
24 34 0 268 192 268 220 0 4 57 8 128 8 70 0 156 5 192 11 36 5 85 13 110 16
97 12 127 17 185 31 33 8 78 23 100 34 22 10 72 20 110 23 83 7 67 1 104 38
l31 30 -19 37 c-23 43 -47 60 -97 67 -20 2 -47 11 -60 19 -12 9 -37 18 -55 21
-18 3 -35 7 -38 9 -5 4 -39 7 -196 21 -70 6 -179 48 -213 81 -7 8 -17 14 -21
14 -4 0 -73 64 -153 143 -141 138 -254 270 -334 392 -21 33 -44 66 -51 75 -47
60 -93 125 -159 224 -100 152 -189 229 -299 261 -33 10 -53 20 -45 23 8 2 43
17 78 33 35 16 65 29 67 29 29 0 235 186 235 213 0 5 8 2 19 -7 28 -25 70 -13
109 31 28 33 122 207 122 227 0 4 9 26 19 49 11 23 37 87 60 142 22 55 62 146
90 202 79 160 129 284 192 471 118 352 130 427 63 392 -44 -23 -103 -87 -177
-190 -58 -82 -167 -254 -167 -265 0 -2 -22 -39 -49 -82 -65 -106 -111 -193
-111 -211 0 -28 -16 1 -35 63 -76 252 -312 477 -550 524 -33 7 -76 16 -95 21
-92 23 -210 30 -305 17 -164 -21 -369 -126 -482 -246 l-53 -56 14 48 c8 26 14
49 14 50 0 6 26 98 43 152 11 33 21 69 23 80 2 11 14 47 25 80 65 183 84 244
99 318 20 93 18 123 -7 137 -14 7 -24 2 -48 -23z"/>
</g>
</svg>
