<?xml version="1.0" standalone="no"?>
<!DOCTYPE svg PUBLIC "-//W3C//DTD SVG 20010904//EN"
 "http://www.w3.org/TR/2001/REC-SVG-20010904/DTD/svg10.dtd">
<svg version="1.0" xmlns="http://www.w3.org/2000/svg"
 width="500.000000pt" height="500.000000pt" viewBox="0 0 500.000000 500.000000"
 preserveAspectRatio="xMidYMid meet">
<metadata>
Created by potrace 1.11, written by Peter Selinger 2001-2013
</metadata>
<g transform="translate(0.000000,500.000000) scale(0.100000,-0.100000)"
fill="#000000" stroke="none">
<path d="M2086 4909 c-45 -11 -97 -41 -132 -76 -38 -38 -94 -123 -94 -143 0
-10 -10 -31 -23 -47 -13 -15 -41 -57 -62 -93 -21 -36 -49 -80 -63 -98 -28 -39
-82 -142 -82 -159 0 -6 -15 -40 -33 -75 -59 -114 -135 -383 -163 -573 -15
-109 -24 -158 -29 -163 -3 -3 -5 0 -5 6 0 23 -63 148 -105 207 -23 33 -48 78
-55 100 -19 61 -80 171 -115 208 -52 55 -80 73 -128 85 -104 27 -178 8 -253
-65 l-54 -52 -77 19 c-162 41 -273 14 -383 -95 -42 -41 -47 -49 -60 -103 -6
-29 -31 -82 -55 -118 -51 -78 -67 -133 -65 -234 1 -41 -2 -102 -8 -134 -6 -43
-6 -73 3 -106 16 -59 54 -126 81 -140 15 -9 23 -28 32 -78 18 -104 40 -169 71
-205 15 -17 39 -54 52 -82 13 -27 36 -68 51 -89 16 -22 33 -58 39 -80 9 -33
35 -65 128 -156 131 -129 167 -159 254 -212 34 -21 67 -42 74 -48 7 -5 15 -10
19 -10 3 0 18 -8 32 -19 45 -31 293 -157 372 -189 84 -33 207 -72 275 -86 6
-2 37 -8 70 -16 33 -7 83 -14 110 -15 28 -1 51 -3 52 -4 1 0 -7 -22 -17 -47
-11 -25 -22 -56 -24 -69 -4 -19 -37 -134 -41 -143 -1 -1 -27 6 -58 16 -74 25
-197 28 -284 7 -96 -24 -220 -86 -275 -139 -27 -25 -54 -49 -61 -53 -20 -12
-101 -132 -118 -173 -18 -46 -18 -47 -32 -170 -11 -92 -10 -115 5 -190 10 -47
25 -104 33 -128 20 -61 96 -164 182 -247 59 -58 94 -82 195 -132 104 -52 150
-72 178 -78 47 -10 83 -19 118 -31 136 -45 522 -80 764 -70 146 6 254 1 384
-20 20 -3 68 3 114 15 44 12 99 21 122 21 101 0 422 74 525 121 24 10 46 19
49 19 11 0 179 84 214 108 19 13 61 46 94 75 58 50 59 51 130 53 39 2 89 5
111 8 76 10 130 17 175 21 25 2 63 7 85 11 22 4 44 7 50 5 25 -7 63 -7 90 0
17 5 45 11 64 14 19 3 43 11 55 17 11 6 61 17 109 24 84 13 155 38 187 66 33
29 80 97 85 124 15 81 16 104 6 154 -22 116 -20 111 -69 165 -40 43 -99 71
-247 116 -93 28 -127 33 -220 35 -60 1 -123 5 -140 9 -32 8 -121 72 -158 113
-12 13 -50 52 -85 86 -194 188 -252 256 -334 389 -46 75 -99 146 -132 179 -7
8 -19 25 -26 38 -28 54 -121 188 -159 229 -34 37 -39 47 -28 60 31 38 45 46
90 48 63 2 114 30 183 100 45 46 70 85 119 188 34 72 70 153 80 180 10 28 27
70 38 95 11 25 22 54 24 65 4 20 83 191 109 235 21 36 62 125 91 200 14 36 31
79 39 96 7 17 20 55 28 85 7 30 39 124 69 209 31 85 61 182 67 214 23 115 -4
238 -65 299 -36 35 -121 60 -180 53 -57 -8 -66 -12 -145 -59 -66 -40 -91 -63
-145 -131 -16 -21 -44 -55 -62 -75 -18 -20 -46 -61 -63 -91 -30 -53 -68 -112
-90 -137 -5 -7 -10 -17 -10 -22 0 -28 -27 -10 -136 95 -65 63 -138 128 -160
144 -42 29 -183 86 -239 96 -16 3 -50 10 -75 15 -24 6 -76 12 -115 15 -38 2
-111 11 -161 20 -66 11 -102 12 -134 5 -24 -5 -47 -8 -51 -5 -6 3 -90 -19
-158 -42 -9 -3 -12 1 -8 13 3 10 21 74 41 142 79 276 28 434 -156 479 -53 14
-58 14 -112 1z"/>
</g>
</svg>
